<svg width="56" height="56" viewBox="0 0 56 56" fill="none" xmlns="http://www.w3.org/2000/svg">
<path d="M11.6668 0C5.23728 0 0 5.23728 0 11.6668C0 17.2973 4.01637 22.014 9.33366 23.0986V39.6668C9.33366 44.8162 13.5683 49.0005 18.6663 49.0005H18.7513C19.3212 52.9477 22.7331 56.001 26.8334 56.001C31.3299 56.001 34.9995 52.3313 34.9995 47.8349C34.9995 43.3385 31.3299 39.6678 26.8334 39.6678C22.7331 39.6678 19.3212 42.7201 18.7513 46.6683H18.6663C14.8436 46.6683 11.6658 43.539 11.6658 39.6678V27.9042C13.191 29.4609 15.2792 30.3361 17.4583 30.3342H18.7513C19.3212 34.2814 22.7331 37.3346 26.8334 37.3346C30.9337 37.3346 34.3446 34.2824 34.9146 30.3342H39.7518C40.3217 34.2814 43.7336 37.3346 47.8339 37.3346C52.3303 37.3346 56 33.664 56 29.1676C56 24.6711 52.3303 21.0015 47.8339 21.0015C43.7336 21.0015 40.3217 24.0538 39.7518 28.002H34.9146C34.3456 24.0548 30.9337 21.0015 26.8334 21.0015C22.7331 21.0015 19.3212 24.0538 18.7513 28.002H17.4583C14.644 28.002 12.299 25.9938 11.7755 23.3327C18.1547 23.2734 23.3327 18.0608 23.3327 11.6678C23.3327 5.27482 18.0964 0 11.6668 0ZM11.6668 2.33416C16.8113 2.32428 20.9906 6.48684 21.0005 11.6313C21.0005 11.6431 21.0005 11.655 21.0005 11.6668C21.0104 16.8122 16.8468 20.9906 11.7014 21.0005C11.6896 21.0005 11.6777 21.0005 11.6668 21.0005C6.5224 21.0104 2.34403 16.8478 2.33416 11.7024C2.33416 11.6905 2.33416 11.6787 2.33416 11.6668C2.32428 6.5224 6.48585 2.34403 11.6303 2.33416C11.6421 2.33416 11.655 2.33416 11.6668 2.33416ZM9.38503 5.63339C8.16807 5.63931 7.00049 6.61723 7.00049 7.94779V15.4046C7.00049 17.1738 9.06103 18.3196 10.5645 17.3881L16.5297 13.6888C17.9551 12.8048 17.962 10.6257 16.5436 9.73174L10.5783 5.97319C10.2217 5.74797 9.8078 5.62944 9.38602 5.63339H9.38503ZM9.33366 7.94779L15.299 11.7054L9.33366 15.4046V7.94779ZM26.8344 23.3337C30.0457 23.3238 32.6574 25.9187 32.6673 29.13C32.6673 29.1419 32.6673 29.1547 32.6673 29.1666C32.6772 32.3789 30.0813 34.9906 26.87 35.0005C26.8581 35.0005 26.8463 35.0005 26.8354 35.0005C23.6231 35.0104 21.0114 32.4144 21.0015 29.2021C21.0015 29.1903 21.0015 29.1784 21.0015 29.1676C20.9916 25.9553 23.5885 23.3445 26.7998 23.3347C26.8117 23.3347 26.8235 23.3347 26.8344 23.3347V23.3337ZM47.8339 23.3337C51.0452 23.3238 53.657 25.9187 53.6668 29.13C53.6668 29.1419 53.6668 29.1547 53.6668 29.1666C53.6767 32.3789 51.0808 34.9906 47.8695 35.0005C47.8576 35.0005 47.8458 35.0005 47.8349 35.0005C44.6226 35.0104 42.0109 32.4144 42.001 29.2021C42.001 29.1903 42.001 29.1784 42.001 29.1676C41.9911 25.9553 44.588 23.3445 47.7993 23.3347C47.8112 23.3347 47.823 23.3347 47.8339 23.3347V23.3337ZM29.211 26.3751C28.9019 26.3751 28.6045 26.4976 28.3852 26.7159L25.6293 29.4698L24.7136 28.5581C24.2573 28.1037 23.5184 28.1047 23.064 28.5611C22.6096 29.0174 22.6106 29.7563 23.067 30.2117L24.8055 31.9443C25.2608 32.3986 25.9977 32.3977 26.4531 31.9443L30.0339 28.3684C30.4902 27.9131 30.4902 27.1742 30.0349 26.7178C29.8166 26.4995 29.5192 26.3771 29.211 26.3771V26.3751ZM50.2105 26.3751C49.9014 26.3751 49.604 26.4976 49.3848 26.7159L46.6288 29.4698L45.7131 28.5581C45.2568 28.1037 44.5179 28.1047 44.0635 28.5611C43.6091 29.0174 43.6101 29.7563 44.0665 30.2117L45.805 31.9443C46.2604 32.3986 46.9972 32.3977 47.4526 31.9443L51.0334 28.3684C51.4897 27.9131 51.4897 27.1742 51.0344 26.7178C50.8161 26.4995 50.5187 26.3771 50.2105 26.3771V26.3751ZM26.8344 42.001C30.0467 41.9911 32.6574 44.588 32.6673 47.7993C32.6673 47.8112 32.6673 47.823 32.6673 47.8339C32.6772 51.0452 30.0823 53.657 26.871 53.6668C26.8591 53.6668 26.8463 53.6668 26.8344 53.6668C23.6221 53.6767 21.0104 51.0808 21.0005 47.8695C21.0005 47.8576 21.0005 47.8458 21.0005 47.8349C20.9906 44.6226 23.5865 42.0109 26.7988 42.001C26.8107 42.001 26.8226 42.001 26.8334 42.001H26.8344ZM24.5002 46.0845C23.5411 46.0845 22.7499 46.8748 22.7499 47.8349C22.7499 48.795 23.5411 49.5853 24.5002 49.5853C25.4594 49.5853 26.2506 48.796 26.2506 47.8349C26.2506 46.8738 25.4604 46.0845 24.5002 46.0845ZM29.1666 46.0845C28.2074 46.0845 27.4162 46.8748 27.4162 47.8349C27.4162 48.795 28.2074 49.5853 29.1666 49.5853C30.1257 49.5853 30.917 48.796 30.917 47.8349C30.917 46.8738 30.1267 46.0845 29.1666 46.0845ZM24.5002 47.2511C24.8282 47.2511 25.084 47.507 25.084 47.8349C25.084 48.1628 24.8292 48.4177 24.5002 48.4177C24.1713 48.4177 23.9165 48.1638 23.9165 47.8349C23.9165 47.506 24.1723 47.2511 24.5002 47.2511ZM29.1666 47.2511C29.4945 47.2511 29.7504 47.507 29.7504 47.8349C29.7504 48.1628 29.4955 48.4177 29.1666 48.4177C28.8376 48.4177 28.5838 48.1638 28.5838 47.8349C28.5838 47.506 28.8386 47.2511 29.1666 47.2511Z" fill="white"/>
<path d="M47.8335 39.6669C43.7282 39.6669 40.3134 42.7261 39.7494 46.6802C39.7109 46.6763 39.6723 46.6753 39.6338 46.6753L38.4524 46.7148C37.8084 46.7355 37.3036 47.2749 37.3243 47.9179C37.3451 48.562 37.8844 49.0667 38.5285 49.046L39.7099 49.0075C39.7237 49.0075 39.7385 49.0055 39.7523 49.0045C40.3243 52.9497 43.7341 55.9991 47.8335 55.9991C52.3299 55.9991 55.9996 52.3294 55.9996 47.833C55.9996 43.3365 52.3299 39.6659 47.8335 39.6659V39.6669ZM47.8335 42.001C51.0458 41.9912 53.6565 44.5881 53.6664 47.7994C53.6664 47.8112 53.6664 47.8231 53.6664 47.834C53.6763 51.0453 51.0814 53.657 47.87 53.6669C47.8582 53.6669 47.8453 53.6669 47.8335 53.6669C44.6212 53.6768 42.0095 51.0808 41.9996 47.8695C41.9996 47.8577 41.9996 47.8458 41.9996 47.835C41.9897 44.6226 44.5856 42.0109 47.7979 42.001C47.8098 42.001 47.8216 42.001 47.8325 42.001H47.8335Z" fill="white"/>
</svg>
